Coordinates
version=1
nRows=11
nColumns=36
inDegrees=yes

Units are S.I. units (second, meters, Newtons, ...)
If the header above contains a line with 'inDegrees', this indicates whether rotational values are in degrees (yes) or radians (no).

endheader
time	pelvis_tilt	pelvis_list	pelvis_rotation	pelvis_tx	pelvis_ty	pelvis_tz	hip_flexion_r	hip_adduction_r	hip_rotation_r	knee_angle_r	knee_angle_r_beta	ankle_angle_r	subtalar_angle_r	mtp_angle_r	hip_flexion_l	hip_adduction_l	hip_rotation_l	knee_angle_l	knee_angle_l_beta	ankle_angle_l	subtalar_angle_l	mtp_angle_l	lumbar_extension	lumbar_bending	lumbar_rotation	arm_flex_r	arm_add_r	arm_rot_r	elbow_flex_r	pro_sup_r	arm_flex_l	arm_add_l	arm_rot_l	elbow_flex_l	pro_sup_l
      0.00000000	      4.47624087	     -1.06541855	     -0.77440798	      0.92606374	      0.82270155	      0.70795458	     13.75202263	     -0.20686602	      4.70916706	      0.55969817	      0.00976858	      1.28497792	    -10.43709994	     -6.65365741	    -17.12740726	      0.63025844	      4.67038738	      5.37925060	      0.09388563	     18.65966708	     -6.60199804	     -6.65365741	    -11.40414871	      1.44561794	     -3.62800003	     -1.24224228	    -10.67091055	    -11.02785616	     16.74824393	     88.72050752	     12.27894784	    -12.25175188	      3.65686130	     21.77105547	     89.54412109
      0.01666670	      3.38832936	     -1.58342386	     -0.72993117	      0.92405635	      0.81427262	      0.71248208	     15.21930545	      0.54531203	      5.26817384	      0.67908408	      0.01185225	      1.68851972	    -10.10699407	     -6.81426207	    -15.15776322	     -0.26525625	      3.39371651	      8.60630273	      0.15020832	     21.29742820	     -6.95809245	     -6.81426207	     -9.46947036	      2.36132568	     -4.15419416	     -0.50848530	    -11.10843112	     -9.23914995	     14.23363607	     88.16911800	     11.97375499	    -12.11149651	      3.72727784	     20.61390834	     87.42236364
      0.03333330	      1.46505951	     -1.91537585	     -0.56231452	      0.92377370	      0.80601059	      0.71703683	     16.97187681	      1.04071020	      6.27198243	      0.74459862	      0.01299570	      1.07516900	    -10.17697705	     -7.14608728	    -12.76187245	     -1.01025550	      2.92578930	     11.39149345	      0.19881907	     23.15563828	     -7.98201683	     -7.14608728	     -6.41137512	      3.00146381	     -4.83747331	     -0.64607000	    -11.54425802	    -10.42921838	     13.32606209	     96.35059680	     11.06200344	    -11.94645607	      0.87317117	     20.03262571	     93.37993331
      0.05000000	      1.63753289	     -2.69057419	     -0.09415895	      0.92387763	      0.80158047	      0.71952982	     16.27921384	      1.98234629	      5.45591586	      1.58306384	      0.02762968	      0.44249017	    -10.07175888	     -7.20162092	    -12.77942962	     -2.36639926	      1.96925658	     13.48001769	      0.23527069	     24.42123935	     -7.69723256	     -7.20162092	     -6.16085762	      4.07420655	     -5.21182872	     -0.39067099	    -12.11654121	     -9.07496798	     12.84901270	     95.38010169	     11.00588094	    -11.76231635	      1.38101988	     19.33645682	     92.41453683
      0.06666670	      1.76307692	     -3.03451813	     -0.24915495	      0.92449915	      0.80008881	      0.72161094	     16.13034600	      2.69503043	      4.67914512	      3.86851910	      0.06751840	     -0.25464987	    -10.09436963	     -7.20851622	    -12.55269393	     -3.15815648	      0.75729554	     16.17932943	      0.28238257	     24.60195267	     -8.20625085	     -7.20851622	     -6.19427721	      4.56680121	     -5.02777660	     -0.16531883	    -12.43107009	     -8.99837555	     13.18005074	     95.24892759	     10.73519960	    -11.57833126	      1.33158824	     19.23663271	     92.29887815
      0.08333330	      1.63053978	     -3.45795409	     -0.43711894	      0.92524793	      0.79987676	      0.72345831	     16.43452054	      3.44423931	      3.66181045	      6.61787764	      0.11550375	     -1.03675087	    -10.77652637	     -7.28473719	    -11.66562080	     -4.12248744	     -0.58259273	     19.71318771	      0.34406003	     24.70519713	     -7.74584613	     -7.28473719	     -5.91240847	      5.15923968	     -5.37724474	      0.97926173	    -12.94618216	     -6.05368675	     12.32767120	     97.49019244	     10.39714336	    -11.33614145	      0.10826050	     18.02513969	     94.45321587
      0.10000000	      1.43044218	     -3.89749564	     -0.83843819	      0.92487204	      0.79926980	      0.72546470	     16.75609619	      4.24368985	      3.01636395	      9.12063338	      0.15918508	     -1.22859736	    -11.42715162	     -7.29508113	    -10.45728451	     -5.03335733	     -1.68428664	     23.81138476	      0.41558706	     23.46116188	     -8.30092220	     -7.29508113	     -5.81187522	      5.80817550	     -5.15753716	      1.66442065	    -13.29877845	     -5.76410730	     12.63835057	     97.58845193	     10.09933737	    -11.05435756	     -0.30672222	     17.44720650	     94.67236022
      0.11666670	      1.34434637	     -4.51150600	     -1.25494294	      0.92381131	      0.79875495	      0.72769221	     16.77887127	      5.27079640	      2.78884693	     11.20090826	      0.19549273	     -0.78346470	    -12.20737444	     -7.30592094	     -8.85370678	     -6.16765201	     -2.62532643	     28.80725878	      0.50278151	     21.13557586	     -9.50116998	     -7.30592094	     -5.88696027	      6.68570428	     -4.93057128	      2.42228218	    -13.75049029	     -5.01998107	     13.21006074	     97.76262997	      9.79368307	    -10.75256963	     -0.81900132	     16.84872591	     94.90951439
      0.13333330	      1.42222450	     -5.22411856	     -1.51495971	      0.92367392	      0.80107897	      0.73039742	     16.29589514	      6.39416371	      2.71548617	     12.65528593	      0.22087641	      0.22223140	    -12.93327085	     -7.31401210	     -6.95191306	     -7.45138369	     -3.24300219	     34.34946389	      0.59951124	     17.57305300	    -10.96509330	     -7.31401210	     -6.13529854	      7.64428922	     -4.67710739	      3.12531129	    -14.17493643	     -4.18289516	     13.80393320	     97.94117900	      9.55390877	    -10.39075066	     -1.15805853	     16.21917326	     95.13636905
      0.15000000	      1.56419412	     -5.89096844	     -1.73829020	      0.92591494	      0.80713635	      0.73437389	     15.37036581	      7.51528581	      2.97358184	     13.46196275	      0.23495557	      1.54451708	    -13.43318838	     -7.33437268	     -5.11985997	     -8.64575342	     -3.69441137	     39.54202661	      0.69013856	     13.27692525	    -12.28287045	     -7.33437268	     -6.31723356	      8.48948163	     -4.58395542	      3.78681092	    -14.71118166	     -0.35644010	     14.15119681	     96.89713264	      9.16729683	    -10.10278952	     -1.01045227	     15.28308468	     94.66979128
      0.16666670	      1.86008521	     -6.46265538	     -1.71717974	      0.93049474	      0.81413246	      0.73954633	     13.91304237	      8.47710186	      2.97791685	     13.66088773	      0.23842747	      3.11249600	    -13.10174281	     -7.34083276	     -3.59496032	     -9.64403461	     -3.83851240	     44.01821812	      0.76826284	      8.60668135	    -13.08345624	     -7.34083276	     -6.42478000	      9.16360431	     -4.30464908	      4.06808925	    -14.85812530	      1.06313205	     14.10935635	     96.09302858	      8.88520671	     -9.68331390	     -0.81171434	     14.20041108	     94.42355244
